<?xml version="1.0" encoding="UTF-8" standalone="no"?><!-- Generator: Gravit.io --><svg xmlns="http://www.w3.org/2000/svg" xmlns:xlink="http://www.w3.org/1999/xlink" style="isolation:isolate" viewBox="2202 135 50 41.141" width="50pt" height="41.141pt"><path d=" M 2228.369 141.337 L 2243.837 135 C 2258.567 153.278 2253.113 168.421 2229.487 176.141 C 2233.374 165.964 2233.065 159.402 2229.487 158.762 C 2224.434 157.973 2223.852 161.997 2228.648 171.109 C 2212.204 171.109 2203.519 165.575 2202.044 154.01 C 2201.702 147.461 2203.349 141.886 2206.983 137.283 L 2221.939 140.871 C 2218.586 144.512 2219.022 147.697 2223.244 150.422 C 2224.235 148.178 2223.927 147.031 2222.312 146.974 L 2222.172 146.462 L 2227.763 144.086 C 2230.095 145.367 2230.702 147.169 2229.58 149.49 C 2233.224 147.278 2233.171 144.101 2228.369 141.337 Z " fill="rgb(248,74,11)"/></svg>